HIERARCHY
ROOT joint_Root
{
	OFFSET 0.0 0.0 0.0
	CHANNELS 6 Xposition Yposition Zposition Zrotation Xrotation Yrotation 
	JOINT Hips
	{
		OFFSET 4.5925 91.4895 -427.239
		CHANNELS 6 Xposition Yposition Zposition Zrotation Xrotation Yrotation 
		JOINT Spine
		{
			OFFSET 15.7357 0.0 0.0
			CHANNELS 6 Xposition Yposition Zposition Zrotation Xrotation Yrotation 
			JOINT Chest
			{
				OFFSET 8.98455 -0.406207 0.0
				CHANNELS 6 Xposition Yposition Zposition Zrotation Xrotation Yrotation 
				JOINT Neck
				{
					OFFSET 16.3773 0.0 0.0
					CHANNELS 6 Xposition Yposition Zposition Zrotation Xrotation Yrotation 
					JOINT Head
					{
						OFFSET 6.45672 0.0 0.0
						CHANNELS 6 Xposition Yposition Zposition Zrotation Xrotation Yrotation 
						End Site
						{
							OFFSET 0.0 0.0 0.0
						}
					}
				}
				JOINT Shoulder_L
				{
					OFFSET 12.9942 -0.242716 4.98039
					CHANNELS 6 Xposition Yposition Zposition Zrotation Xrotation Yrotation 
					JOINT UpperArm_L
					{
						OFFSET 5.34809 0.0 0.0
						CHANNELS 6 Xposition Yposition Zposition Zrotation Xrotation Yrotation 
						JOINT LowerArm_L
						{
							OFFSET 24.3286 1.87007e-05 0.0
							CHANNELS 6 Xposition Yposition Zposition Zrotation Xrotation Yrotation 
							JOINT Hand_L
							{
								OFFSET 22.2916 0.0 0.0
								CHANNELS 6 Xposition Yposition Zposition Zrotation Xrotation Yrotation 
								End Site
								{
									OFFSET 0.0 0.0 0.0
								}
							}
						}
					}
				}
				JOINT Shoulder_R
				{
					OFFSET 12.9945 -0.242716 -4.98039
					CHANNELS 6 Xposition Yposition Zposition Zrotation Xrotation Yrotation 
					JOINT UpperArm_R
					{
						OFFSET -5.34813 0.0 0.0
						CHANNELS 6 Xposition Yposition Zposition Zrotation Xrotation Yrotation 
						JOINT LowerArm_R
						{
							OFFSET -24.3289 0.000322201 0.0
							CHANNELS 6 Xposition Yposition Zposition Zrotation Xrotation Yrotation 
							JOINT Hand_R
							{
								OFFSET -22.2915 -0.000108084 0.0
								CHANNELS 6 Xposition Yposition Zposition Zrotation Xrotation Yrotation 
								End Site
								{
									OFFSET 0.0 0.0 0.0
								}
							}
						}
					}
				}
			}
		}
		JOINT UpperLeg_L
		{
			OFFSET -2.19248 -6.46944 0.0
			CHANNELS 6 Xposition Yposition Zposition Zrotation Xrotation Yrotation 
			JOINT LowerLeg_L
			{
				OFFSET 39.0811 0.0 -1.23785e-05
				CHANNELS 6 Xposition Yposition Zposition Zrotation Xrotation Yrotation 
				JOINT Foot_L
				{
					OFFSET 40.9854 0.0 -1.26872e-05
					CHANNELS 6 Xposition Yposition Zposition Zrotation Xrotation Yrotation 
					JOINT Toes_L
					{
						OFFSET 11.7543 0.0 0.0
						CHANNELS 6 Xposition Yposition Zposition Zrotation Xrotation Yrotation 
						End Site
						{
							OFFSET 0.0 0.0 0.0
						}
					}
				}
			}
		}
		JOINT UpperLeg_R
		{
			OFFSET -2.19251 6.46944 0.0
			CHANNELS 6 Xposition Yposition Zposition Zrotation Xrotation Yrotation 
			JOINT LowerLeg_R
			{
				OFFSET -39.0811 -0.00228153 -0.0401928
				CHANNELS 6 Xposition Yposition Zposition Zrotation Xrotation Yrotation 
				JOINT Foot_R
				{
					OFFSET -40.9854 0.0 0.0
					CHANNELS 6 Xposition Yposition Zposition Zrotation Xrotation Yrotation 
					JOINT Toes_R
					{
						OFFSET -11.7543 0.0 0.0
						CHANNELS 6 Xposition Yposition Zposition Zrotation Xrotation Yrotation 
						End Site
						{
							OFFSET 0.0 0.0 0.0
						}
					}
				}
			}
		}
	}
}
MOTION
Frames:	5
Frame Time:	0.0333333
0.000000 0.000000 0.000000 0.000000 0.000000 -0.000000 -0.508149 81.135900 0.358096 89.014400 -3.865890 13.375100 15.735700 0.000005 -0.000001 97.360500 80.342700 -98.362000 8.984550 -0.406207 -0.000000 11.419000 2.422870 -2.244610 16.377300 -0.000001 -0.000001 -1.317670 -4.645620 0.985542 6.456720 -0.000001 -0.000000 -2.848940 -8.419550 8.267790 12.994200 -0.242716 4.980390 -92.229400 6.204680 -70.191000 5.348090 -0.000007 -0.000001 -69.458400 29.393000 -8.186600 24.328600 0.000019 0.000005 3.926220 10.345500 -20.919300 22.291600 -0.000001 0.000005 10.529600 5.313370 -0.318107 12.994500 -0.242716 -4.980390 88.671600 7.592870 -80.046100 -5.348130 -0.000001 -0.000004 -65.290700 33.624300 -7.021680 -24.328900 0.000322 -0.000009 -1.212600 -2.336040 -27.421700 -22.291500 -0.000108 -0.000004 19.680400 5.422480 -3.682540 -2.192480 -6.469440 -0.000000 -173.002000 -12.652100 -12.302600 39.081100 -0.000007 -0.000012 -0.448298 0.212244 64.666100 40.985400 -0.000006 -0.000013 1.322250 4.311980 -88.521000 11.754300 -0.000000 0.000003 -0.000376 -0.003142 -16.693700 -2.192510 6.469440 -0.000001 175.539000 13.934500 166.809000 -39.081100 -0.002282 -0.040193 0.094329 -0.042105 65.210200 -40.985400 0.000008 0.000006 6.971330 4.699710 -87.444400 -11.754300 -0.000006 -0.000006 -0.978578 -1.205090 -17.263200
0.000000 0.000000 0.000000 0.000000 0.000000 -0.000000 -0.016226 83.457700 0.683068 89.707800 -6.768280 12.573800 15.735700 0.000005 -0.000001 96.669200 81.221800 -97.059900 8.984550 -0.406207 -0.000000 9.683070 2.020280 -0.952068 16.377300 -0.000001 -0.000001 -0.843235 -3.513570 0.975572 6.456720 -0.000001 -0.000000 -2.233960 -6.439300 6.719610 12.994200 -0.242716 4.980390 -91.860400 4.969770 -69.445400 5.348090 -0.000007 -0.000001 -67.805400 28.821400 -9.109140 24.328600 0.000019 0.000005 5.075430 15.232600 -18.680100 22.291600 -0.000001 0.000005 6.312670 5.357280 -1.604050 12.994500 -0.242716 -4.980390 88.626200 7.490900 -79.576900 -5.348130 -0.000001 -0.000004 -65.556800 33.481200 -6.435750 -24.328900 0.000322 -0.000009 -0.904177 -1.751140 -27.287600 -22.291500 -0.000108 -0.000004 19.425600 5.423870 -3.729870 -2.192480 -6.469440 -0.000000 -174.159000 -14.019400 -9.190010 39.081100 -0.000007 -0.000012 -0.438089 0.275924 57.796900 40.985400 -0.000006 -0.000013 0.585875 2.712530 -85.522100 11.754300 -0.000000 0.000003 -0.000310 -0.002675 -16.677100 -2.192510 6.469440 -0.000001 174.911000 12.312400 168.690000 -39.081100 -0.002282 -0.040193 0.065286 -0.037254 59.032400 -40.985400 0.000008 0.000006 6.872790 6.674770 -84.236400 -11.754300 -0.000006 -0.000006 -0.810458 -0.993624 -17.408000
0.000000 0.000000 0.000000 0.000000 0.000000 -0.000000 0.274658 86.123500 0.996767 90.038700 -8.828240 10.988500 15.735700 0.000005 -0.000001 95.849500 82.628300 -95.308600 8.984550 -0.406207 -0.000000 6.895460 1.493440 0.990748 16.377300 -0.000001 -0.000001 1.189400 -2.553220 0.330833 6.456720 -0.000001 -0.000000 -1.490220 -4.421060 4.259500 12.994200 -0.242716 4.980390 -91.138700 2.925880 -68.721900 5.348090 -0.000007 -0.000001 -61.878000 22.840100 -13.844800 24.328600 0.000019 0.000005 5.759270 18.508200 -17.626000 22.291600 -0.000001 0.000005 4.831900 5.347770 -1.317710 12.994500 -0.242716 -4.980390 88.587100 7.045550 -78.630000 -5.348130 -0.000001 -0.000004 -66.417000 32.206600 -4.246750 -24.328900 0.000322 -0.000009 -0.626312 -1.178690 -27.945800 -22.291500 -0.000108 -0.000004 18.846000 5.427070 -3.839890 -2.192480 -6.469440 -0.000000 -175.313000 -14.427100 -6.253140 39.081100 -0.000007 -0.000012 -0.363747 0.314999 49.108800 40.985400 -0.000006 -0.000013 -0.150897 1.079310 -81.472700 11.754300 -0.000000 0.000003 -0.000274 -0.002410 -16.667600 -2.192510 6.469440 -0.000001 174.485000 12.474100 170.831000 -39.081100 -0.002282 -0.040193 0.043392 -0.032462 51.042900 -40.985400 0.000008 0.000006 6.803940 9.450070 -79.989000 -11.754300 -0.000006 -0.000006 -0.702049 -0.857744 -17.744200
0.000000 0.000000 0.000000 0.000000 0.000000 -0.000000 0.277889 88.470000 1.175570 90.141800 -10.151400 9.088130 15.735700 0.000005 -0.000001 95.678500 84.126500 -94.159400 8.984550 -0.406207 -0.000000 3.910980 1.109600 2.997050 16.377300 -0.000001 -0.000001 3.446260 -2.199050 -0.475534 6.456720 -0.000001 -0.000000 -0.344103 -2.848970 1.752510 12.994200 -0.242716 4.980390 -90.352600 0.903609 -68.689500 5.348090 -0.000007 -0.000001 -54.047900 9.193220 -20.419000 24.328600 0.000019 0.000005 5.162950 15.795500 -18.367000 22.291600 -0.000001 0.000005 7.154030 5.295980 0.177122 12.994500 -0.242716 -4.980390 88.573200 6.303370 -77.217400 -5.348130 -0.000001 -0.000004 -67.077300 30.680200 -1.708610 -24.328900 0.000322 -0.000009 -0.830578 -1.484470 -29.199700 -22.291500 -0.000108 -0.000004 17.870100 5.428150 -3.876410 -2.192480 -6.469440 -0.000000 -175.968000 -14.898100 -3.645050 39.081100 -0.000007 -0.000012 -0.286460 0.338968 40.201600 40.985400 -0.000006 -0.000013 -0.526647 0.344297 -77.138500 11.754300 -0.000000 0.000003 -0.000202 -0.001864 -16.647800 -2.192510 6.469440 -0.000001 174.294000 14.131500 172.885000 -39.081100 -0.002282 -0.040193 0.027503 -0.026109 42.865700 -40.985400 0.000008 0.000006 6.709670 12.761400 -75.652900 -11.754300 -0.000006 -0.000006 -0.502367 -0.618289 -18.196200
0.000000 0.000000 0.000000 0.000000 0.000000 -0.000000 0.091173 90.054400 1.132810 90.169700 -11.128200 7.023760 15.735700 0.000005 -0.000001 94.390000 85.382400 -92.260000 8.984550 -0.406207 -0.000000 1.434780 0.588965 4.248930 16.377300 -0.000001 -0.000001 4.689680 -1.843750 -0.261373 6.456720 -0.000001 -0.000000 0.630494 -1.670080 -0.185540 12.994200 -0.242716 4.980390 -89.629200 -0.991457 -69.479100 5.348090 -0.000007 -0.000001 -44.552400 -7.200090 -27.610700 24.328600 0.000019 0.000005 4.110950 10.522200 -21.492300 22.291600 -0.000001 0.000005 10.511900 5.280870 0.602009 12.994500 -0.242716 -4.980390 88.552700 5.864840 -76.112000 -5.348130 -0.000001 -0.000004 -67.106700 29.312700 -0.054838 -24.328900 0.000322 -0.000009 -1.150280 -1.952420 -30.487700 -22.291500 -0.000108 -0.000004 16.842900 5.431910 -4.004940 -2.192480 -6.469440 -0.000000 -176.250000 -16.024200 -2.128470 39.081100 -0.000007 -0.000012 -0.196212 0.301815 33.028600 40.985400 -0.000006 -0.000013 -0.628964 0.651691 -73.515600 11.754300 -0.000000 0.000003 -0.000129 -0.001280 -16.626400 -2.192510 6.469440 -0.000001 174.495000 16.367900 174.013000 -39.081100 -0.002282 -0.040193 0.017575 -0.019493 36.239800 -40.985400 0.000008 0.000006 7.071510 15.878400 -72.644100 -11.754300 -0.000006 -0.000006 -0.389900 -0.486140 -18.124500
